<mxfile host="app.diagrams.net" agent="Mozilla/5.0 (Windows NT 10.0; Win64; x64) AppleWebKit/537.36 (KHTML, like Gecko) Chrome/131.0.0.0 Safari/537.36" version="25.0.3">
  <diagram name="Page-1" id="smyEBhbpSwAqun1EV2dK">
    <mxGraphModel dx="993" dy="568" grid="1" gridSize="10" guides="1" tooltips="1" connect="1" arrows="1" fold="1" page="1" pageScale="1" pageWidth="850" pageHeight="1100" math="0" shadow="0">
      <root>
        <mxCell id="0" />
        <mxCell id="1" parent="0" />
        <mxCell id="yXznZ-Mf75zoLc2iL4bE-1" value="PM" style="rounded=1;html=1;fillColor=#000000;fontColor=#ffffff;fontFamily=Verdana;" vertex="1" parent="1">
          <mxGeometry x="140" y="100" width="150" height="30" as="geometry" />
        </mxCell>
        <mxCell id="yXznZ-Mf75zoLc2iL4bE-2" value="PELANGGAN" style="rounded=1;html=1;fillColor=#000000;fontColor=#ffffff;fontFamily=Verdana;" vertex="1" parent="1">
          <mxGeometry x="340" y="100" width="150" height="30" as="geometry" />
        </mxCell>
        <mxCell id="yXznZ-Mf75zoLc2iL4bE-3" value="TIK" style="rounded=1;html=1;fillColor=#000000;fontColor=#ffffff;fontFamily=Verdana;" vertex="1" parent="1">
          <mxGeometry x="540" y="100" width="150" height="30" as="geometry" />
        </mxCell>
        <mxCell id="yXznZ-Mf75zoLc2iL4bE-4" value="" style="edgeStyle=orthogonalEdgeStyle;rounded=0;orthogonalLoop=1;jettySize=auto;html=1;" edge="1" parent="1" source="yXznZ-Mf75zoLc2iL4bE-5" target="yXznZ-Mf75zoLc2iL4bE-22">
          <mxGeometry relative="1" as="geometry" />
        </mxCell>
        <mxCell id="yXznZ-Mf75zoLc2iL4bE-33" value="" style="edgeStyle=orthogonalEdgeStyle;rounded=0;orthogonalLoop=1;jettySize=auto;html=1;" edge="1" parent="1" source="yXznZ-Mf75zoLc2iL4bE-5" target="yXznZ-Mf75zoLc2iL4bE-10">
          <mxGeometry relative="1" as="geometry" />
        </mxCell>
        <mxCell id="yXznZ-Mf75zoLc2iL4bE-5" value="PM Mengajukan Negosiasai Kepada&lt;div&gt;&amp;nbsp;Mitra Pelanggan&lt;/div&gt;" style="rounded=1;whiteSpace=wrap;html=1;fontFamily=Verdana;dashed=1;" vertex="1" parent="1">
          <mxGeometry x="140" y="160" width="150" height="70" as="geometry" />
        </mxCell>
        <mxCell id="yXznZ-Mf75zoLc2iL4bE-6" style="edgeStyle=orthogonalEdgeStyle;rounded=0;orthogonalLoop=1;jettySize=auto;html=1;exitX=0.5;exitY=1;exitDx=0;exitDy=0;" edge="1" parent="1">
          <mxGeometry relative="1" as="geometry">
            <mxPoint x="660" y="220" as="sourcePoint" />
            <mxPoint x="660" y="220" as="targetPoint" />
          </mxGeometry>
        </mxCell>
        <mxCell id="yXznZ-Mf75zoLc2iL4bE-9" value="" style="edgeStyle=orthogonalEdgeStyle;rounded=0;orthogonalLoop=1;jettySize=auto;html=1;" edge="1" parent="1" source="yXznZ-Mf75zoLc2iL4bE-10" target="yXznZ-Mf75zoLc2iL4bE-12">
          <mxGeometry relative="1" as="geometry" />
        </mxCell>
        <mxCell id="yXznZ-Mf75zoLc2iL4bE-34" value="" style="edgeStyle=orthogonalEdgeStyle;rounded=0;orthogonalLoop=1;jettySize=auto;html=1;" edge="1" parent="1" source="yXznZ-Mf75zoLc2iL4bE-10" target="yXznZ-Mf75zoLc2iL4bE-5">
          <mxGeometry relative="1" as="geometry" />
        </mxCell>
        <mxCell id="yXznZ-Mf75zoLc2iL4bE-10" value="&lt;font face=&quot;Verdana&quot;&gt;Pelanggan Memberikan keputusan persetujuan proyek&amp;nbsp;&lt;/font&gt;" style="rounded=1;whiteSpace=wrap;html=1;dashed=1;" vertex="1" parent="1">
          <mxGeometry x="340" y="160" width="150" height="70" as="geometry" />
        </mxCell>
        <mxCell id="yXznZ-Mf75zoLc2iL4bE-11" value="" style="edgeStyle=orthogonalEdgeStyle;rounded=0;orthogonalLoop=1;jettySize=auto;html=1;entryX=1;entryY=0.5;entryDx=0;entryDy=0;" edge="1" parent="1" target="yXznZ-Mf75zoLc2iL4bE-24">
          <mxGeometry relative="1" as="geometry">
            <mxPoint x="415" y="330" as="sourcePoint" />
            <mxPoint x="415" y="370" as="targetPoint" />
            <Array as="points">
              <mxPoint x="415" y="395" />
            </Array>
          </mxGeometry>
        </mxCell>
        <mxCell id="yXznZ-Mf75zoLc2iL4bE-12" value="&lt;font face=&quot;Verdana&quot;&gt;Pelanggan Menandatangani surat surat yang diberikan PM&lt;/font&gt;" style="rounded=1;whiteSpace=wrap;html=1;dashed=1;" vertex="1" parent="1">
          <mxGeometry x="340" y="260" width="150" height="70" as="geometry" />
        </mxCell>
        <mxCell id="yXznZ-Mf75zoLc2iL4bE-13" value="&lt;font face=&quot;Verdana&quot;&gt;TIK Memindahkan Data sesuai pengajuan dari PM&amp;nbsp;&lt;/font&gt;" style="rounded=1;whiteSpace=wrap;html=1;dashed=1;" vertex="1" parent="1">
          <mxGeometry x="550" y="410" width="150" height="80" as="geometry" />
        </mxCell>
        <mxCell id="yXznZ-Mf75zoLc2iL4bE-14" value="&lt;font face=&quot;Verdana&quot;&gt;DATA NEGOSIASI&lt;/font&gt;" style="rounded=1;whiteSpace=wrap;html=1;dashed=1;" vertex="1" parent="1">
          <mxGeometry x="740" y="170" width="150" height="80" as="geometry" />
        </mxCell>
        <mxCell id="yXznZ-Mf75zoLc2iL4bE-18" style="edgeStyle=orthogonalEdgeStyle;rounded=0;orthogonalLoop=1;jettySize=auto;html=1;exitX=0.5;exitY=0;exitDx=0;exitDy=0;entryX=0;entryY=0.5;entryDx=0;entryDy=0;" edge="1" parent="1" source="yXznZ-Mf75zoLc2iL4bE-19" target="yXznZ-Mf75zoLc2iL4bE-14">
          <mxGeometry relative="1" as="geometry" />
        </mxCell>
        <mxCell id="yXznZ-Mf75zoLc2iL4bE-19" value="&lt;font face=&quot;Verdana&quot;&gt;TIK Melakukan pengecekan error pada data ataupun file terkait&lt;/font&gt;" style="rounded=1;whiteSpace=wrap;html=1;dashed=1;" vertex="1" parent="1">
          <mxGeometry x="550" y="270" width="150" height="80" as="geometry" />
        </mxCell>
        <mxCell id="yXznZ-Mf75zoLc2iL4bE-20" value="" style="endArrow=classic;startArrow=classic;html=1;rounded=0;exitX=0.5;exitY=0;exitDx=0;exitDy=0;entryX=0.5;entryY=1;entryDx=0;entryDy=0;" edge="1" parent="1" source="yXznZ-Mf75zoLc2iL4bE-13" target="yXznZ-Mf75zoLc2iL4bE-19">
          <mxGeometry width="50" height="50" relative="1" as="geometry">
            <mxPoint x="420" y="460" as="sourcePoint" />
            <mxPoint x="470" y="410" as="targetPoint" />
          </mxGeometry>
        </mxCell>
        <mxCell id="yXznZ-Mf75zoLc2iL4bE-32" value="" style="edgeStyle=orthogonalEdgeStyle;rounded=0;orthogonalLoop=1;jettySize=auto;html=1;" edge="1" parent="1" source="yXznZ-Mf75zoLc2iL4bE-22" target="yXznZ-Mf75zoLc2iL4bE-12">
          <mxGeometry relative="1" as="geometry" />
        </mxCell>
        <mxCell id="yXznZ-Mf75zoLc2iL4bE-37" style="edgeStyle=orthogonalEdgeStyle;rounded=0;orthogonalLoop=1;jettySize=auto;html=1;exitX=0;exitY=0.5;exitDx=0;exitDy=0;entryX=0;entryY=0.5;entryDx=0;entryDy=0;" edge="1" parent="1" source="yXznZ-Mf75zoLc2iL4bE-22" target="yXznZ-Mf75zoLc2iL4bE-27">
          <mxGeometry relative="1" as="geometry">
            <mxPoint x="100" y="500" as="targetPoint" />
            <mxPoint x="120" y="295" as="sourcePoint" />
          </mxGeometry>
        </mxCell>
        <mxCell id="yXznZ-Mf75zoLc2iL4bE-22" value="PM Memberikan surat surat lanjutan sesuai persetujuan pelanggan" style="rounded=1;whiteSpace=wrap;html=1;fontFamily=Verdana;dashed=1;" vertex="1" parent="1">
          <mxGeometry x="140" y="260" width="150" height="70" as="geometry" />
        </mxCell>
        <mxCell id="yXznZ-Mf75zoLc2iL4bE-24" value="PM Mengajukan pemindahan data ke laman Data Kontrak/Blanket" style="rounded=1;whiteSpace=wrap;html=1;fontFamily=Verdana;dashed=1;" vertex="1" parent="1">
          <mxGeometry x="140" y="360" width="150" height="70" as="geometry" />
        </mxCell>
        <mxCell id="yXznZ-Mf75zoLc2iL4bE-27" value="PM Mengajukan pemindahan data ke laman rekapan proyek gagal" style="rounded=1;whiteSpace=wrap;html=1;fontFamily=Verdana;dashed=1;" vertex="1" parent="1">
          <mxGeometry x="140" y="465" width="150" height="75" as="geometry" />
        </mxCell>
        <mxCell id="yXznZ-Mf75zoLc2iL4bE-28" value="DOKUMEN" style="rounded=1;html=1;fillColor=#000000;fontColor=#ffffff;fontFamily=Verdana;" vertex="1" parent="1">
          <mxGeometry x="740" y="100" width="150" height="30" as="geometry" />
        </mxCell>
        <mxCell id="yXznZ-Mf75zoLc2iL4bE-38" value="" style="endArrow=none;html=1;rounded=0;exitX=0.996;exitY=0.722;exitDx=0;exitDy=0;exitPerimeter=0;" edge="1" parent="1" source="yXznZ-Mf75zoLc2iL4bE-24">
          <mxGeometry width="50" height="50" relative="1" as="geometry">
            <mxPoint x="420" y="410" as="sourcePoint" />
            <mxPoint x="360" y="410" as="targetPoint" />
          </mxGeometry>
        </mxCell>
        <mxCell id="yXznZ-Mf75zoLc2iL4bE-39" value="" style="endArrow=none;html=1;rounded=0;exitX=0.998;exitY=0.344;exitDx=0;exitDy=0;exitPerimeter=0;" edge="1" parent="1" source="yXznZ-Mf75zoLc2iL4bE-27">
          <mxGeometry width="50" height="50" relative="1" as="geometry">
            <mxPoint x="290" y="500" as="sourcePoint" />
            <mxPoint x="360" y="490" as="targetPoint" />
          </mxGeometry>
        </mxCell>
        <mxCell id="yXznZ-Mf75zoLc2iL4bE-40" value="" style="endArrow=none;html=1;rounded=0;" edge="1" parent="1">
          <mxGeometry width="50" height="50" relative="1" as="geometry">
            <mxPoint x="360" y="410" as="sourcePoint" />
            <mxPoint x="360" y="490" as="targetPoint" />
          </mxGeometry>
        </mxCell>
        <mxCell id="yXznZ-Mf75zoLc2iL4bE-41" value="" style="endArrow=classic;html=1;rounded=0;entryX=0;entryY=0.5;entryDx=0;entryDy=0;" edge="1" parent="1" target="yXznZ-Mf75zoLc2iL4bE-13">
          <mxGeometry width="50" height="50" relative="1" as="geometry">
            <mxPoint x="360" y="450" as="sourcePoint" />
            <mxPoint x="546" y="450" as="targetPoint" />
          </mxGeometry>
        </mxCell>
      </root>
    </mxGraphModel>
  </diagram>
</mxfile>
